<svg xmlns="http://www.w3.org/2000/svg" fill="none" viewBox="0 0 24 31">
  <path fill="#fff"
    d="m10.8679 7.6303 4.0222.28126-2.3969 3.36904 1.8713 1.3378 2.4923-3.53078 1.9768 3.84328 2.0392-1.0644-1.8767-3.66782 3.9663.27735.1601-2.29041-4.0221-.28125 2.3988-3.39695-1.8713-1.33779-2.4625 3.50477L15.2147.861031 13.1755 1.92538l1.9027 3.69773-4.0501-.28321-.1602 2.2904ZM.688711 19.7525 11.3915 21.2567l.4521-3.2164-7.48646-1.0521L6.6329.795296 3.4165.343262.688711 19.7525ZM23.1817 27.9938 2.3285 30.9245l-.45204-3.2164 20.85324-2.9307.452 3.2164Z" />
</svg>